#!OML:ASF \\sashay\E\Suitcase\Project 1\Capture day 1\Session 1\Male1.ASF
:FULLY-SPECIFIED
:DEGREES
75
root 1.3919 17.4989 -35.9637 7.11106 4.12794 -3.05199
lowerback 2.36361 -1.15999 -1.13024
upperback 1.78238 -1.5716 2.88246
thorax 0.615894 -0.814629 3.6238
lowerneck -8.20497 -2.92588 -5.16264
upperneck 35.7464 -3.80322 1.82235
head 13.5791 -2.11754 1.12126
rclavicle 1.18774e-014 -1.90833e-014
rhumerus -30.9046 -25.0797 -66.564
rradius 23.0662
rwrist -3.25945
rhand -13.1391 17.0992
rfingers 7.12502
rthumb 12.9591 -12.4784
lclavicle 1.18774e-014 -1.90833e-014
lhumerus -35.2575 9.7843 78.3965
lradius 36.3925
lwrist -5.28288
lhand -1.01473 41.2525
lfingers 7.12502
lthumb 24.6181 69.6893
rfemur -13.6183 -0.830752 25.9003
rtibia 26.7721
rfoot -20.4338 -3.72009
rtoes 14.8502
lfemur -16.0689 -3.66561 -19.0519
ltibia 29.7776
lfoot -22.2043 -0.000117443
ltoes 2.00885
76
root 1.38519 17.4934 -35.9624 7.09415 4.33624 -2.97155
lowerback 2.43181 -1.22647 -1.01
upperback 1.69963 -1.65607 2.83898
thorax 0.493839 -0.853105 3.51497
lowerneck -8.47655 -2.92805 -5.19657
upperneck 35.4665 -3.81496 1.92635
head 13.5168 -2.11031 1.16219
rclavicle 1.88845e-015 -1.25234e-014
rhumerus -31.2026 -25.3015 -66.4015
rradius 22.9089
rwrist -3.24568
rhand -13.3756 17.3993
rfingers 7.12502
rthumb 12.7311 -12.1926
lclavicle 1.88845e-015 -1.25234e-014
lhumerus -35.4363 9.86723 78.2101
lradius 36.2954
lwrist -5.42387
lhand -1.03469 41.5528
lfingers 7.12502
lthumb 24.599 69.9923
rfemur -13.6227 -0.864856 25.8539
rtibia 26.8414
rfoot -20.5006 -3.94826
rtoes 14.3035
lfemur -16.065 -3.97571 -19.083
ltibia 29.8061
lfoot -22.1793 0.22568
ltoes 2.51385
77
root 1.3771 17.4986 -35.9529 7.06957 4.4177 -3.00936
lowerback 2.3693 -1.30431 -0.807615
upperback 1.64086 -1.75533 2.8058
thorax 0.467887 -0.899904 3.3673
lowerneck -8.7059 -3.01643 -5.09977
upperneck 35.2144 -3.97012 1.97028
head 13.4598 -2.15791 1.13629
rclavicle 3.19546e-014 2.98177e-015
rhumerus -31.4342 -25.2179 -66.4052
rradius 22.8611
rwrist -3.03822
rhand -13.6247 16.6998
rfingers 7.12502
rthumb 12.491 -12.9069
lclavicle 3.19546e-014 2.98177e-015
lhumerus -35.5927 10.0565 77.9663
lradius 36.1952
lwrist -5.28369
lhand -1.18419 41.5318
lfingers 7.12502
lthumb 24.4557 69.9907
rfemur -13.5637 -0.630583 25.9359
rtibia 26.8302
rfoot -20.5953 -4.1931
rtoes 14.3442
lfemur -16.0467 -4.03409 -19.0096
ltibia 29.8264
lfoot -22.2999 0.16399
ltoes 2.18339
78
root 1.36936 17.499 -35.9486 7.03395 4.50541 -2.92638
lowerback 2.34218 -1.34338 -0.847054
upperback 1.6415 -1.80839 2.81472
thorax 0.488745 -0.927109 3.39885
lowerneck -8.94554 -2.78356 -5.00218
upperneck 34.5655 -3.63898 2.02123
head 13.2077 -1.98837 1.18
rclavicle 3.27995e-015 -1.2921e-014
rhumerus -31.6204 -25.5065 -66.2492
rradius 22.6907
rwrist -2.67608
rhand -13.6485 17.0083
rfingers 7.12502
rthumb 12.468 -12.5998
lclavicle 3.27995e-015 -1.2921e-014
lhumerus -35.6351 10.3634 77.8196
lradius 35.9508
lwrist -5.53009
lhand -1.21676 41.4994
lfingers 7.12502
lthumb 24.4244 69.9625
rfemur -13.5011 -0.627847 25.8848
rtibia 26.8303
rfoot -20.487 -4.42239
rtoes 13.9362
lfemur -15.9806 -4.3128 -19.0672
ltibia 29.8045
lfoot -22.2067 0.361933
ltoes 2.97584
79
root 1.36554 17.4991 -35.9385 7.02751 4.6514 -2.94097
lowerback 2.29252 -1.45128 -0.644521
upperback 1.59436 -1.94802 2.77186
thorax 0.468779 -0.994321 3.2419
lowerneck -9.12489 -2.75242 -4.95098
upperneck 34.042 -3.64677 2.19521
head 13.0209 -1.96052 1.23317
rclavicle -1.14301e-014 -2.98177e-015
rhumerus -31.8885 -25.5087 -66.1751
rradius 22.6246
rwrist -2.6138
rhand -13.3569 17.7066
rfingers 7.12502
rthumb 12.7491 -11.8842
lclavicle -1.14301e-014 -2.98177e-015
lhumerus -35.8136 10.5643 77.4848
lradius 35.799
lwrist -5.57382
lhand -1.5127 41.6001
lfingers 7.12502
lthumb 24.1407 70.1011
rfemur -13.4143 -0.725913 25.9283
rtibia 26.8186
rfoot -20.6571 -4.3732
rtoes 14.0952
lfemur -15.9249 -4.39909 -19.0298
ltibia 29.7678
lfoot -22.3309 0.232071
ltoes 2.27114
80
root 1.35894 17.4967 -35.9402 7.01693 4.76605 -2.99953
lowerback 2.35305 -1.43593 -0.525181
upperback 1.49024 -1.9226 2.84552
thorax 0.325093 -0.978729 3.25383
lowerneck -9.25977 -2.68686 -4.95064
upperneck 33.5237 -3.54804 2.24705
head 12.8239 -1.90598 1.26271
rclavicle -1.31695e-014 7.95139e-015
rhumerus -32.3156 -25.6021 -65.8199
rradius 22.5545
rwrist -2.59272
rhand -13.0739 17.8967
rfingers 7.12502
rthumb 13.0219 -11.6768
lclavicle -1.31695e-014 7.95139e-015
lhumerus -35.8342 10.5868 77.4906
lradius 35.5107
lwrist -5.54187
lhand -1.49631 41.4619
lfingers 7.12502
lthumb 24.1564 69.9608
rfemur -13.4412 -0.873784 26.0383
rtibia 26.8286
rfoot -20.5078 -4.36594
rtoes 14.1276
lfemur -15.9081 -4.53305 -18.9241
ltibia 29.7291
lfoot -22.1909 0.234138
ltoes 3.12998
81
root 1.35583 17.4992 -35.9342 7.14701 4.86419 -2.79368
lowerback 2.27059 -1.47017 -0.575263
upperback 1.32263 -1.96665 2.78904
thorax 0.201595 -0.998222 3.22483
lowerneck -9.20806 -2.64186 -5.01724
upperneck 32.8298 -3.51367 2.42658
head 12.5233 -1.87394 1.34489
rclavicle 1.04362e-015 9.54166e-015
rhumerus -32.7275 -25.3267 -65.7511
rradius 22.6621
rwrist -2.78549
rhand -13.3353 17.6476
rfingers 7.12502
rthumb 12.77 -11.9419
lclavicle 1.04362e-015 9.54166e-015
lhumerus -36.0732 10.7541 77.3209
lradius 35.317
lwrist -5.5294
lhand -1.59242 41.4376
lfingers 7.12502
lthumb 24.0643 69.9488
rfemur -13.5336 -0.766482 25.819
rtibia 26.8082
rfoot -20.6741 -4.47848
rtoes 14.5466
lfemur -16.0259 -4.6921 -19.13
ltibia 29.714
lfoot -22.2995 0.253102
ltoes 2.56627
82
root 1.34831 17.4994 -35.9272 7.13696 5.13878 -2.70846
lowerback 2.17148 -1.61812 -0.51826
upperback 1.34435 -2.16433 2.73845
thorax 0.28714 -1.09754 3.14026
lowerneck -9.70792 -2.55708 -4.71311
upperneck 32.2462 -3.38674 2.31082
head 12.3702 -1.789 1.25522
rclavicle -6.4605e-016 -3.37934e-015
rhumerus -32.8095 -25.9803 -65.5828
rradius 22.3262
rwrist -2.29741
rhand -13.2147 18.213
rfingers 7.12502
rthumb 12.8863 -11.3692
lclavicle -6.4605e-016 -3.37934e-015
lhumerus -36.1421 11.1585 77.0281
lradius 35.1993
lwrist -5.8648
lhand -1.42435 41.1588
lfingers 7.12502
lthumb 24.2254 69.6485
rfemur -13.4789 -0.937258 25.7808
rtibia 26.7844
rfoot -20.6327 -4.51526
rtoes 14.5586
lfemur -16.0692 -4.81802 -19.1835
ltibia 29.7041
lfoot -22.317 0.0240934
ltoes 3.38143
83
root 1.34492 17.5024 -35.9142 7.14419 5.27499 -2.73638
lowerback 2.01149 -1.69123 -0.294144
upperback 1.35379 -2.25996 2.69485
thorax 0.381339 -1.14443 2.96516
lowerneck -9.68036 -2.47069 -5.0049
upperneck 31.2299 -3.39077 2.99919
head 11.9681 -1.73774 1.55951
rclavicle -1.1281e-014 1.78906e-014
rhumerus -32.9109 -26.0925 -65.5972
rradius 22.3008
rwrist -2.09312
rhand -13.6248 17.7338
rfingers 7.12502
rthumb 12.4909 -11.8729
lclavicle -1.1281e-014 1.78906e-014
lhumerus -36.2624 11.3026 76.8046
lradius 35.1757
lwrist -5.73686
lhand -1.3712 41.1213
lfingers 7.12502
lthumb 24.2764 69.6043
rfemur -13.3901 -1.02452 25.8314
rtibia 26.7372
rfoot -20.7208 -4.55455
rtoes 14.1921
lfemur -16.0126 -4.71615 -19.1532
ltibia 29.7129
lfoot -22.3963 0.0280637
ltoes 2.36599
84
root 1.33686 17.4995 -35.9172 7.13031 5.46785 -2.81216
lowerback 2.20706 -1.73424 -0.14232
upperback 1.24068 -2.3094 2.76693
thorax 0.155514 -1.16595 2.96387
lowerneck -10.0125 -2.44092 -4.85703
upperneck 30.7541 -3.2937 2.8083
head 11.8346 -1.69515 1.46759
rclavicle 8.69683e-015 -7.55382e-015
rhumerus -33.2159 -26.1307 -65.3078
rradius 22.2224
rwrist -1.96698
rhand -13.4666 17.7121
rfingers 7.12502
rthumb 12.6434 -11.8852
lclavicle 8.69683e-015 -7.55382e-015
lhumerus -36.3919 11.272 76.8106
lradius 35.0471
lwrist -5.65108
lhand -1.4824 41.7596
lfingers 7.12502
lthumb 24.1698 70.2568
rfemur -13.3816 -0.917665 25.9448
rtibia 26.7001
rfoot -20.6995 -4.68219
rtoes 15.4301
lfemur -16.1001 -4.88721 -19.0035
ltibia 29.7433
lfoot -22.3925 -0.138388
ltoes 2.93056
85
root 1.33024 17.5045 -35.911 7.18467 5.53398 -2.74722
lowerback 2.09079 -1.77322 -0.115131
upperback 1.18845 -2.36148 2.74597
thorax 0.16775 -1.1915 2.92483
lowerneck -10.2247 -2.37705 -4.68535
upperneck 30.3451 -3.16361 2.62045
head 11.7027 -1.63665 1.37955
rclavicle -2.47487e-014 1.86858e-014
rhumerus -33.5232 -25.9709 -65.2793
rradius 22.2932
rwrist -1.97777
rhand -13.5536 18.11
rfingers 7.12502
rthumb 12.5595 -11.4925
lclavicle -2.47487e-014 1.86858e-014
lhumerus -36.6715 11.2848 76.7189
lradius 35.1508
lwrist -5.31934
lhand -1.70828 41.5333
lfingers 7.12502
lthumb 23.9532 70.0591
rfemur -13.3875 -1.03743 25.9281
rtibia 26.6656
rfoot -20.7398 -4.77104
rtoes 14.3586
lfemur -16.1375 -4.88426 -19.0502
ltibia 29.8034
lfoot -22.402 -0.121859
ltoes 2.30897
86
root 1.32754 17.4958 -35.9089 7.24305 5.6187 -2.68381
lowerback 2.03406 -1.86969 0.000187946
upperback 1.07865 -2.48653 2.68758
thorax 0.0857869 -1.25195 2.80223
lowerneck -10.2887 -2.30147 -4.65774
upperneck 29.6292 -3.11255 2.84802
head 11.4347 -1.58101 1.45991
rclavicle -1.78906e-015 5.1684e-015
rhumerus -33.8302 -26.1541 -65.1694
rradius 22.2738
rwrist -1.81678
rhand -13.597 18.0016
rfingers 7.12502
rthumb 12.5177 -11.6035
lclavicle -1.78906e-015 5.1684e-015
lhumerus -36.873 11.4289 76.5147
lradius 35.0107
lwrist -5.12278
lhand -1.65031 42.1336
lfingers 7.12502
lthumb 24.0088 70.6521
rfemur -13.4323 -1.00609 25.8454
rtibia 26.6649
rfoot -20.7568 -4.71137
rtoes 15.6783
lfemur -16.2806 -4.94469 -19.1446
ltibia 29.8288
lfoot -22.3586 0.127292
ltoes 1.039
87
root 1.32475 17.4987 -35.9029 7.28054 5.72647 -2.74135
lowerback 2.01625 -1.91422 0.20818
upperback 1.0075 -2.54069 2.70354
thorax 0.0170738 -1.27727 2.70383
lowerneck -10.5369 -2.25199 -4.7382
upperneck 28.9491 -3.05772 3.0582
head 11.2235 -1.53561 1.5506
rclavicle -4.52235e-015 7.55382e-015
rhumerus -34.1421 -26.0062 -65.0632
rradius 22.3435
rwrist -2.00209
rhand -13.7719 17.9301
rfingers 7.12502
rthumb 12.349 -11.6852
lclavicle -4.52235e-015 7.55382e-015
lhumerus -37.073 11.4353 76.4856
lradius 35.009
lwrist -4.94984
lhand -1.71674 41.7765
lfingers 7.12502
lthumb 23.9451 70.3033
rfemur -13.441 -1.29899 25.9442
rtibia 26.6549
rfoot -20.8217 -4.60141
rtoes 14.5856
lfemur -16.3654 -4.90463 -19.0615
ltibia 29.8781
lfoot -22.349 -0.0309747
ltoes 1.10752
88
root 1.31115 17.4966 -35.8915 7.21858 5.82342 -2.71902
lowerback 1.95682 -1.9243 0.103524
upperback 1.01181 -2.55713 2.79162
thorax 0.064228 -1.28663 2.85107
lowerneck -10.3311 -2.06149 -5.18181
upperneck 27.7919 -2.84465 3.68303
head 10.7482 -1.41022 1.87175
rclavicle -8.05078e-015 -7.95139e-015
rhumerus -34.2504 -25.6555 -65.0234
rradius 22.4053
rwrist -2.49059
rhand -14.167 17.4737
rfingers 7.12502
rthumb 11.968 -12.1642
lclavicle -8.05078e-015 -7.95139e-015
lhumerus -37.2308 11.6123 76.5227
lradius 35.0064
lwrist -5.06141
lhand -1.89595 41.5105
lfingers 7.12502
lthumb 23.7732 70.0598
rfemur -13.3411 -1.05527 25.979
rtibia 26.6486
rfoot -20.7755 -4.94253
rtoes 15.376
lfemur -16.2611 -5.14373 -19.0304
ltibia 29.8943
lfoot -22.3309 0.35289
ltoes -0.573973
